:SAMPLES-PER-SECOND 30
:FULLY-SPECIFIED
:DEGREES
214
root  10.09333303 37.28200056 -2.971822258 1.487750053 14.09210014 -13.56709957
lowerback  12.83619976 7.346570015 -4.199140072
upperback  4.965209961 9.070409775 -3.946120024
thorax  -1.878640056 4.506539822 -3.080379963
lowerneck  1.362820029 -4.719150066 -7.914730072
upperneck  2.117500067 -6.933370113 26.125
head  1.612490058 -3.34968996 9.396530151
lclavicle  0 -9.442270133e-015 7.951389973e-016
lhumerus  7.415100098 -29.88829994 74.53150177
lradius  2.460407397e-031 -2.532832303e-031 134.1690063
lwrist  -7.062250077e-031 -0 11.22710037
lhand  -1.496451383e-031 -27.76390076 20.11240005
lfingers  90 7.125020027 -90
lthumb  89.89689403 5.08795885 91.16245106
rclavicle  0 -9.442270133e-015 7.951389973e-016
rhumerus  22.99029922 -2.942100048 -47.01760101
rradius  6.885678096e-032 3.463339199e-031 78.75530243
rwrist  7.062250077e-031 -0 9.018500328
rhand  -7.920061211e-032 -33.2840004 9.303460121
rfingers  -90 -7.125020027 -90
rthumb  -92.93752616 -24.25625642 -97.11982154
rfemur  -1.746219993 8.639719963 20.65870094
rtibia  -0 0 45.10029984
rfoot  -5.001471011e-032 -20.89559937 -0.02075669914
rtoes  5.373923086 19.29304026 -105.8922705
lfemur  -54.3891983 -5.517199993 3.128770113
ltibia  -0 0 58.19810104
lfoot  4.420682832e-032 -3.172869921 0.5407739878
ltoes  -4.250644065 -19.5611806 -102.515957
215
root  10.1039113 37.25911238 -2.882422237 0.5652700067 12.81630039 -13.85239983
lowerback  12.79259968 7.349420071 -4.515950203
upperback  4.981599808 9.040260315 -3.806999922
thorax  -1.909010053 4.484459877 -2.758260012
lowerneck  1.761790037 -4.403560162 -7.680689812
upperneck  2.863500118 -6.640029907 26.1644001
head  1.686480045 -3.180890083 9.392399788
lclavicle  0 -9.442270133e-015 7.951389973e-016
lhumerus  7.753310204 -30.28440094 74.7779007
lradius  2.453501849e-031 -2.539522143e-031 134.0130005
lwrist  -7.062250077e-031 -0 11.09420013
lhand  -1.496451383e-031 -27.76390076 20.11240005
lfingers  90 7.125020027 -90
lthumb  89.89689403 5.08795885 91.16245106
rclavicle  0 -9.442270133e-015 7.951389973e-016
rhumerus  19.96699905 -1.722480059 -49.12519836
rradius  4.5902229e-032 3.501163032e-031 82.53079987
rwrist  1.059337512e-030 -3.531125038e-031 8.639109612
rhand  -7.920061211e-032 -33.2840004 9.303460121
rfingers  -90 -7.125020027 -90
rthumb  -92.93752616 -24.25625642 -97.11982154
rfemur  -1.234539986 9.49423027 20.39830017
rtibia  -0 0 45.43149948
rfoot  -4.686240748e-032 -19.62919998 3.073110104
rtoes  5.373923086 19.29304026 -105.8922705
lfemur  -52.8667984 -5.751999855 3.733570099
ltibia  -0 0 58.5483017
lfoot  4.424862356e-032 -4.03278017 1.415490031
ltoes  -4.250644065 -19.5611806 -102.515957
216
root  10.12133351 37.2597792 -2.791688949 -0.1772699952 11.54909992 -14.08230019
lowerback  12.46990013 7.289299965 -4.915170193
upperback  5.041969776 8.945170403 -3.649240017
thorax  -1.758679986 4.428639889 -2.321959972
lowerneck  2.131249905 -4.039509773 -7.421820164
upperneck  3.571160078 -6.268159866 26.15099907
head  1.739189982 -2.973320007 9.366499901
lclavicle  0 -9.442270133e-015 7.951389973e-016
lhumerus  7.867199898 -30.38170052 74.87799835
lradius  2.465485727e-031 -2.527889271e-031 134.2839966
lwrist  -7.062250077e-031 -0 10.81849957
lhand  -1.496451383e-031 -27.76390076 20.11240005
lfingers  90 7.125020027 -90
lthumb  89.89689403 5.08795885 91.16245106
rclavicle  0 -9.442270133e-015 7.951389973e-016
rhumerus  17.22459984 -0.5399199724 -50.91490173
rradius  2.373483538e-032 3.523139196e-031 86.14589691
rwrist  1.059337512e-030 -3.531125038e-031 8.119589806
rhand  -7.920061211e-032 -33.2840004 9.303460121
rfingers  -90 -7.125020027 -90
rthumb  -92.93752616 -24.25625642 -97.11982154
rfemur  -0.8126379848 10.35910034 20.17499924
rtibia  -0 0 45.56340027
rfoot  -4.647943324e-032 -18.2595005 5.55384016
rtoes  5.373923086 19.29304026 -105.8922705
lfemur  -51.39179993 -5.933740139 4.262479782
ltibia  -0 0 58.72679901
lfoot  4.429583272e-032 -4.82186985 2.295490026
ltoes  -4.250644065 -19.5611806 -102.515957
217
root  10.14702189 37.30199919 -2.700355485 -0.8128349781 10.2251997 -14.33269978
lowerback  12.07800007 7.181839943 -5.331850052
upperback  5.106029987 8.795470238 -3.452450037
thorax  -1.573469996 4.343820095 -1.820309997
lowerneck  2.380490065 -3.673000097 -7.31896019
upperneck  4.368889809 -5.918910027 26.20759964
head  1.851259947 -2.764509916 9.390800476
lclavicle  0 -9.442270133e-015 7.951389973e-016
lhumerus  8.075619698 -30.14599991 74.8852005
lradius  2.483292528e-031 -2.510398825e-031 134.6889954
lwrist  -7.062250077e-031 -0 10.69139957
lhand  -1.496451383e-031 -27.76390076 20.11240005
lfingers  90 7.125020027 -90
lthumb  89.89689403 5.08795885 91.16245106
rclavicle  0 -9.442270133e-015 7.951389973e-016
rhumerus  14.72490025 0.6750959754 -52.43230057
rradius  2.598900506e-033 3.531029398e-031 89.57830048
rwrist  1.059337512e-030 -3.531125038e-031 7.567500114
rhand  -7.920061211e-032 -33.2840004 9.303460121
rfingers  -90 -7.125020027 -90
rthumb  -92.93752616 -24.25625642 -97.11982154
rfemur  -0.4665330052 11.32320023 20.10860062
rtibia  -0 0 45.50439835
rfoot  -0 -16.67440033 7.508999825
rtoes  5.373923086 19.29304026 -105.8922705
lfemur  -49.89319992 -6.033390045 4.803440094
ltibia  -0 0 58.77149963
lfoot  4.433766282e-032 -5.425039768 3.143569946
ltoes  -4.250644065 -19.5611806 -102.515957
218
root  10.17673297 37.37888787 -2.624644445 -1.323189974 8.91893959 -14.69690037
lowerback  11.76930046 7.122960091 -5.404560089
upperback  5.11345005 8.738710403 -3.312060118
thorax  -1.432940006 4.310780048 -1.588629961
lowerneck  2.613600016 -3.384690046 -7.242790222
upperneck  5.049330235 -5.660019875 26.3423996
head  1.95314002 -2.605999947 9.444459915
lclavicle  0 -9.442270133e-015 7.951389973e-016
lhumerus  8.80741024 -30.04000092 74.73709869
lradius  2.494963979e-031 -2.498799468e-031 134.9559937
lwrist  0 -1.765562519e-031 11.0298996
lhand  -1.496451383e-031 -27.76390076 20.11240005
lfingers  90 7.125020027 -90
lthumb  89.89689403 5.08795885 91.16245106
rclavicle  0 -9.442270133e-015 7.951389973e-016
rhumerus  11.94190025 1.492660046 -53.87879944
rradius  -1.720021829e-032 3.526933411e-031 92.79199982
rwrist  1.059337512e-030 -0 7.343939781
rhand  -7.920061211e-032 -33.2840004 9.303460121
rfingers  -90 -7.125020027 -90
rthumb  -92.93752616 -24.25625642 -97.11982154
rfemur  -0.1872099936 12.23279953 20.26119995
rtibia  -0 0 45.27370071
rfoot  -0 -14.96310043 9.011130333
rtoes  5.373923086 19.29304026 -105.8922705
lfemur  -48.54100037 -6.109099865 5.483779907
ltibia  -0 0 58.71920013
lfoot  4.436535267e-032 -5.789390087 3.945250034
ltoes  -4.250644065 -19.5611806 -102.515957
219
root  10.22219996 37.49044523 -2.561777783 -1.672180057 7.661129951 -14.97529984
lowerback  11.48009968 7.069540024 -5.279510021
upperback  5.036590099 8.701310158 -3.318269968
thorax  -1.339930058 4.293179989 -1.62390995
lowerneck  2.952820063 -3.112529993 -7.11743021
upperneck  5.6802001 -5.416659832 26.58790016
head  2.025840044 -2.462290049 9.530830383
lclavicle  0 -9.442270133e-015 7.951389973e-016
lhumerus  9.42111969 -30.11809921 74.50679779
lradius  2.506494479e-031 -2.487233295e-031 135.220993
lwrist  -7.062250077e-031 -1.765562519e-031 11.18900013
lhand  -1.496451383e-031 -27.76390076 20.11240005
lfingers  90 7.125020027 -90
lthumb  89.89689403 5.08795885 91.16245106
rclavicle  0 -9.442270133e-015 7.951389973e-016
rhumerus  8.906220436 2.02215004 -55.29169846
rradius  -3.656092882e-032 3.512146621e-031 95.94300079
rwrist  0 -3.531125038e-031 7.010970116
rhand  -7.920061211e-032 -33.2840004 9.303460121
rfingers  -90 -7.125020027 -90
rthumb  -92.93752616 -24.25625642 -97.11982154
rfemur  0.04241950065 12.78590012 20.26790047
rtibia  -0 0 44.90629959
rfoot  -0 -13.28590012 10.19820023
rtoes  5.373923086 19.29304026 -105.8922705
lfemur  -47.33449936 -6.181330204 6.046140194
ltibia  -0 0 58.58069992
lfoot  4.4376216e-032 -5.926119804 4.736710072
ltoes  -4.250644065 -19.5611806 -102.515957
